# xmcd
#
# Track frame offsets:
#	150
#	19145
#	29585
#	44590
#	62220
#	81720
#	99450
#	114520
#	137050
#	153560
#	175795
#	189920
#	213535
#	235495
#	250665
#	265435
#	280715
#	298775
#	318080
#
# Disc length: 4472 seconds
#
# Revision: 0
# Processed by: cddbd v1.5.2PL0 Copyright (c) Steve Scherf et al.
# Submitted via: EasyCDDAExtractor 15.2.1.1
#
DISCID=1e117613
DTITLE=Various Artist - Жырлы, Монлы Сэяхэт
DYEAR=2004
DGENRE=Ethnic
TTITLE0=Резида Байтерякова - Тамчы гэл
TTITLE1=Раиль Абдурахманов - Эбиемнен шэле
TTITLE2=Вэсилэ Фэттахова - Туган як
TTITLE3=Эльмир Газизуллин - Донья лакта
TTITLE4=Эльвира Хэйруллина - Кунеллерне сурелдермик дуслар
TTITLE5=Рэсим Низамов - Кэзге моннар
TTITLE6=Дамира Сэетова - Эзлэдем, табалмадым
TTITLE7=Габделфэт Сафин - Лилиягэ
TTITLE8=Салават Фэтхетдинов - Борчылма
TTITLE9=Хэния Фэрхи - Басмаларда чакта кулынны бир
TTITLE10=Фэрит Эхсэнов - Бэйрэм
TTITLE11=Вэсилэ Фэттахова - Ялгыз миляш
TTITLE12=Эльмир Газизуллин - Агидел кызы (Яна версия)
TTITLE13=Фэдис Ганиев - Сэелмэдэ, сэймэдэ
TTITLE14=Зифа Нагаева - Эниемнен фотосурэте
TTITLE15=Сэгыйть Гыйбашев - Матур жыр
TTITLE16=Зэфэр Билалов - Эх, кара чэч-зэнгэр куз
TTITLE17=Резида Байтерякова - Санама кэккук
TTITLE18=Айдар Галимов - Дингезгэ
EXTD=
EXTT0=
EXTT1=
EXTT2=
EXTT3=
EXTT4=
EXTT5=
EXTT6=
EXTT7=
EXTT8=
EXTT9=
EXTT10=
EXTT11=
EXTT12=
EXTT13=
EXTT14=
EXTT15=
EXTT16=
EXTT17=
EXTT18=
PLAYORDER=
